<!-- Created with Inkscape (http://www.inkscape.org/) -->
<svg xmlns:rdf="http://www.w3.org/1999/02/22-rdf-syntax-ns#" xmlns="http://www.w3.org/2000/svg" version="1.1" xmlns:cc="http://creativecommons.org/ns#" xmlns:dc="http://purl.org/dc/elements/1.1/" viewBox="0 0 1407 1407">
	<metadata>
		<rdf:RDF>
			<cc:Work rdf:about="">
				<dc:format>image/svg+xml</dc:format>
				<dc:type rdf:resource="http://purl.org/dc/dcmitype/StillImage"/>
				<dc:title/>
			</cc:Work>
		</rdf:RDF>
	</metadata>
	<g transform="translate(-796.6875,1150.9503)" fill="#383838">
		<path d="m1709-1151-912,923.8,0,101.7,486.2-492.6,0,663.5,0,101.7,71.41-72.34,0-101.7,0-663.5,454.7-460.6-100.3,0z"/>
		<path d="m1716-1041-71.44,72.38,0,101.6,0,665-452,457.9,100.4,0,910.5-922.4,0-101.7-487.4,493.8,0-664.9,0-101.7z"/>
		<path d="m1694-1151-12.38,0-884.8,896.3,0,12.53,897.2-908.9z"/>
		<path d="m1310,255.7,12.41,0,880.7-892.2,0-12.53-893.1,904.7z"/>
		<path d="m796.7-110.2,0,12.56,466.2-472.3-0.031,724.8-99.53,100.8,12.41,0,87.12-88.28,8.844-8.937,0-12.56,0-724.8,0-12.56-8.812,8.937-466.2,472.3z"/>
		<path d="m1634-958.7-8.813,8.938-259.8,263.2,0,0.25,0,12.31-0.031,737.3,0.031-0.031,0,0.062,259.8-263.2,8.781-8.938,0.031-12.53,0-724.8,0-12.56zm-8.813,21.5-0.031,724.8,0,0.031-251,254.2,0.031-724.8,251-254.2z"/>
		<path d="m1824-1151-89.12,90.28-8.813,8.938,0,12.53-0.031,724.8,0,12.56,8.812-8.937,0-12.53,0.031-724.8,101.5-102.8-12.41,0z"/>
		<path d="m2203,1150-477.2,483.4,0,12.53,477.2-483.4,0-12.53z" transform="translate(0,-1947.6378)"/>
		<path d="m1466,1909,0-12.56-8.812,8.906,0,12.56,8.812-8.906z" transform="translate(0,-1947.6378)"/>
	</g>
</svg>
